<?xml version="1.0" encoding="UTF-8"?>
<svg width="16px" height="16px" viewBox="0 0 16 16" version="1.1" xmlns="http://www.w3.org/2000/svg" xmlns:xlink="http://www.w3.org/1999/xlink">
    <!-- Generator: Sketch 60.1 (88133) - https://sketch.com -->
    <title>离线</title>
    <desc>Created with Sketch.</desc>
    <g id="页面-1" stroke="none" stroke-width="1" fill="none" fill-rule="evenodd">
        <g id="door-open-solid备份-5">
            <rect id="矩形" fill="#000000" fill-rule="nonzero" opacity="0" x="0" y="0" width="16" height="16"></rect>
            <path d="M14,2 L14,14 L2,14 L2,2 L14,2 Z M13,3 L3,3 L3,13 L13,13 L13,3 Z M6,4 L6.00070296,6.08560151 C6.58293192,6.29171807 7,6.8471533 7,7.5 C7,8.1528467 6.58293192,8.70828193 6.00070296,8.91439849 L6,12 L5,12 L5.00029246,8.91475048 C4.41754351,8.70891488 4,8.15321869 4,7.5 C4,6.84678131 4.41754351,6.29108512 5.00029246,6.08524952 L5,4 L6,4 Z M11,4 L11.000703,7.08560151 C11.5829319,7.29171807 12,7.8471533 12,8.5 C12,9.1528467 11.5829319,9.70828193 11.000703,9.91439849 L11,12 L10,12 L10.0002925,9.91475048 C9.41754351,9.70891488 9,9.15321869 9,8.5 C9,7.84678131 9.41754351,7.29108512 10.0002925,7.08524952 L10,4 L11,4 Z M10.5,8 C10.2238576,8 10,8.22385763 10,8.5 C10,8.77614237 10.2238576,9 10.5,9 C10.7761424,9 11,8.77614237 11,8.5 C11,8.22385763 10.7761424,8 10.5,8 Z M5.5,7 C5.22385763,7 5,7.22385763 5,7.5 C5,7.77614237 5.22385763,8 5.5,8 C5.77614237,8 6,7.77614237 6,7.5 C6,7.22385763 5.77614237,7 5.5,7 Z" id="形状结合" fill-opacity="0.25" fill="#000000" fill-rule="nonzero"></path>
            <circle id="椭圆形" fill="#8C8C8C" cx="14.5" cy="1.5" r="1.5"></circle>
        </g>
    </g>
</svg>