<?xml version="1.0" encoding="UTF-8"?>
<svg width="16px" height="16px" viewBox="0 0 16 16" version="1.1" xmlns="http://www.w3.org/2000/svg" xmlns:xlink="http://www.w3.org/1999/xlink">
    <!-- Generator: Sketch 60.1 (88133) - https://sketch.com -->
    <title>门开启</title>
    <desc>Created with Sketch.</desc>
    <g id="页面-1" stroke="none" stroke-width="1" fill="none" fill-rule="evenodd">
        <g id="door-open-solid">
            <rect id="矩形" fill="#000000" fill-rule="nonzero" opacity="0" x="0" y="0" width="16" height="16"></rect>
            <circle id="椭圆形" fill="#ECAE00" cx="14.5" cy="1.5" r="1.5"></circle>
            <path d="M7.9375,2 L7.8905,2.0155 L3.8905,2.953 L3.5,3.047 L3.5,13.172 L3.9065,13.2345 L7.9065,13.9845 L7.953,14 L9,14 L9,2 L7.9375,2 Z M10,3 L10,4 L11.5,4 L11.5,12 L10,12 L10,13 L12.5,13 L12.5,3 L10,3 Z M8,3.0155 L8,13 L4.5,12.3435 L4.5,3.8285 L8,3.0155 Z M7.172,7.5 C6.9885,7.5 6.828,7.725 6.828,8 C6.828,8.275 6.988,8.5 7.172,8.5 C7.3555,8.5 7.5,8.275 7.5,8 C7.5,7.725 7.355,7.5 7.172,7.5 Z" id="形状" fill-opacity="0.65" fill="#000000" fill-rule="nonzero"></path>
        </g>
    </g>
</svg>